<svg width="17" height="30" viewBox="0 0 17 30" fill="none" xmlns="http://www.w3.org/2000/svg">
<path d="M14.9793 0.00175415C14.5206 0.00175415 14.0638 0.177067 13.7113 0.523912L0.583538 13.6517C0.246811 13.9867 0.0574894 14.442 0.0574894 14.917C0.0574894 15.3919 0.246811 15.8472 0.583538 16.1822L13.7114 29.3137C14.1615 29.7768 14.8261 29.9615 15.4506 29.7972C16.075 29.6328 16.5626 29.1449 16.7265 28.5203C16.8904 27.8956 16.7052 27.2312 16.2418 26.7814L4.382 14.9216L16.2418 3.05997C16.7543 2.54814 16.9083 1.77811 16.6321 1.10852C16.3559 0.438933 15.7037 0.00147688 14.9794 -9.15527e-05L14.9793 0.00175415Z" fill="white"/>
</svg>
